<svg width="186" height="61" viewBox="0 0 186 61" fill="none" xmlns="http://www.w3.org/2000/svg">
<circle cx="30.5" cy="30.5" r="30.5" fill="#2F6D57"/>
<path d="M11.2495 23.0659H17.3136L18.9516 27.3782M18.9516 27.3782L23.9167 40.4497H43.322L47.4995 27.3782H18.9516Z" stroke="#FBFCE6" stroke-width="3.10199"/>
<path d="M26.0071 40.7193V15.25H37.4615C40.2915 15.25 45.547 21.8532 37.4615 27.2435H29.6456L43.6604 40.7193" stroke="#FBFCE6" stroke-width="3.10199"/>
<circle cx="26.0729" cy="45.7052" r="2.42565" fill="#FBFCE6"/>
<circle cx="41.4357" cy="45.7052" r="2.27055" fill="#FBFCE6" stroke="#FBFCE6" stroke-width="0.310198"/>
<path d="M78.517 39V21.5455H85.4034C86.7216 21.5455 87.8466 21.7812 88.7784 22.2528C89.7159 22.7187 90.429 23.3807 90.9176 24.2386C91.4119 25.0909 91.6591 26.0937 91.6591 27.2472C91.6591 28.4062 91.4091 29.4034 90.9091 30.2386C90.4091 31.0682 89.6847 31.7045 88.7358 32.1477C87.7926 32.5909 86.6506 32.8125 85.3097 32.8125H80.6989V29.8466H84.7131C85.4176 29.8466 86.0028 29.75 86.4688 29.5568C86.9347 29.3636 87.2813 29.0739 87.5085 28.6875C87.7415 28.3011 87.858 27.821 87.858 27.2472C87.858 26.6676 87.7415 26.179 87.5085 25.7812C87.2813 25.3835 86.9318 25.0824 86.4602 24.8778C85.9943 24.6676 85.4063 24.5625 84.696 24.5625H82.2074V39H78.517ZM87.9432 31.0568L92.2812 39H88.2074L83.9631 31.0568H87.9432ZM99.4738 39.2557C98.1272 39.2557 96.9682 38.983 95.9966 38.4375C95.0307 37.8864 94.2863 37.108 93.7636 36.1023C93.2409 35.0909 92.9795 33.8949 92.9795 32.5142C92.9795 31.1676 93.2409 29.9858 93.7636 28.9688C94.2863 27.9517 95.0221 27.1591 95.971 26.5909C96.9255 26.0227 98.0449 25.7386 99.3289 25.7386C100.193 25.7386 100.997 25.8778 101.741 26.1562C102.491 26.429 103.144 26.8409 103.701 27.392C104.264 27.9432 104.701 28.6364 105.014 29.4716C105.326 30.3011 105.482 31.2727 105.482 32.3864V33.3835H94.4284V31.1335H102.065C102.065 30.6108 101.951 30.1477 101.724 29.7443C101.497 29.3409 101.181 29.0256 100.778 28.7983C100.38 28.5653 99.917 28.4489 99.3886 28.4489C98.8375 28.4489 98.3488 28.5767 97.9227 28.8324C97.5022 29.0824 97.1727 29.4205 96.9341 29.8466C96.6954 30.267 96.5733 30.7358 96.5676 31.2528V33.392C96.5676 34.0398 96.6869 34.5994 96.9255 35.071C97.1699 35.5426 97.5136 35.9062 97.9568 36.1619C98.4 36.4176 98.9255 36.5455 99.5335 36.5455C99.9369 36.5455 100.306 36.4886 100.641 36.375C100.977 36.2614 101.264 36.0909 101.502 35.8636C101.741 35.6364 101.923 35.358 102.048 35.0284L105.406 35.25C105.235 36.0568 104.886 36.7614 104.357 37.3636C103.835 37.9602 103.158 38.4261 102.329 38.7614C101.505 39.0909 100.553 39.2557 99.4738 39.2557ZM118.221 21.5455H121.911V32.8807C121.911 34.1534 121.607 35.267 121 36.2216C120.397 37.1761 119.553 37.9205 118.468 38.4545C117.383 38.983 116.119 39.2472 114.676 39.2472C113.227 39.2472 111.96 38.983 110.875 38.4545C109.789 37.9205 108.946 37.1761 108.343 36.2216C107.741 35.267 107.44 34.1534 107.44 32.8807V21.5455H111.13V32.5653C111.13 33.2301 111.275 33.821 111.565 34.3381C111.86 34.8551 112.275 35.2614 112.809 35.5568C113.343 35.8523 113.965 36 114.676 36C115.392 36 116.014 35.8523 116.542 35.5568C117.076 35.2614 117.488 34.8551 117.778 34.3381C118.073 33.821 118.221 33.2301 118.221 32.5653V21.5455ZM135.292 29.642L131.968 29.8466C131.911 29.5625 131.789 29.3068 131.601 29.0795C131.414 28.8466 131.167 28.6619 130.86 28.5256C130.559 28.3835 130.198 28.3125 129.777 28.3125C129.215 28.3125 128.74 28.4318 128.354 28.6705C127.968 28.9034 127.774 29.2159 127.774 29.608C127.774 29.9205 127.899 30.1847 128.149 30.4006C128.399 30.6165 128.828 30.7898 129.436 30.9205L131.806 31.3977C133.078 31.6591 134.027 32.0795 134.652 32.6591C135.277 33.2386 135.59 34 135.59 34.9432C135.59 35.8011 135.337 36.554 134.831 37.2017C134.331 37.8494 133.644 38.3551 132.769 38.7188C131.899 39.0767 130.897 39.2557 129.76 39.2557C128.027 39.2557 126.647 38.8949 125.618 38.1733C124.596 37.446 123.996 36.4574 123.82 35.2074L127.391 35.0199C127.499 35.5483 127.76 35.9517 128.175 36.2301C128.59 36.5028 129.121 36.6392 129.769 36.6392C130.405 36.6392 130.917 36.517 131.303 36.2727C131.695 36.0227 131.894 35.7017 131.899 35.3097C131.894 34.9801 131.755 34.7102 131.482 34.5C131.209 34.2841 130.789 34.1193 130.221 34.0057L127.953 33.554C126.675 33.2983 125.723 32.8551 125.098 32.2244C124.479 31.5937 124.169 30.7898 124.169 29.8125C124.169 28.9716 124.397 28.2472 124.851 27.6392C125.311 27.0312 125.956 26.5625 126.786 26.233C127.621 25.9034 128.598 25.7386 129.718 25.7386C131.371 25.7386 132.672 26.0881 133.621 26.7869C134.576 27.4858 135.132 28.4375 135.292 29.642ZM143.362 39.2557C142.015 39.2557 140.856 38.983 139.885 38.4375C138.919 37.8864 138.174 37.108 137.652 36.1023C137.129 35.0909 136.868 33.8949 136.868 32.5142C136.868 31.1676 137.129 29.9858 137.652 28.9688C138.174 27.9517 138.91 27.1591 139.859 26.5909C140.814 26.0227 141.933 25.7386 143.217 25.7386C144.081 25.7386 144.885 25.8778 145.629 26.1562C146.379 26.429 147.032 26.8409 147.589 27.392C148.152 27.9432 148.589 28.6364 148.902 29.4716C149.214 30.3011 149.37 31.2727 149.37 32.3864V33.3835H138.317V31.1335H145.953C145.953 30.6108 145.839 30.1477 145.612 29.7443C145.385 29.3409 145.069 29.0256 144.666 28.7983C144.268 28.5653 143.805 28.4489 143.277 28.4489C142.726 28.4489 142.237 28.5767 141.811 28.8324C141.39 29.0824 141.061 29.4205 140.822 29.8466C140.584 30.267 140.461 30.7358 140.456 31.2528V33.392C140.456 34.0398 140.575 34.5994 140.814 35.071C141.058 35.5426 141.402 35.9062 141.845 36.1619C142.288 36.4176 142.814 36.5455 143.422 36.5455C143.825 36.5455 144.194 36.4886 144.53 36.375C144.865 36.2614 145.152 36.0909 145.39 35.8636C145.629 35.6364 145.811 35.358 145.936 35.0284L149.294 35.25C149.123 36.0568 148.774 36.7614 148.245 37.3636C147.723 37.9602 147.047 38.4261 146.217 38.7614C145.393 39.0909 144.442 39.2557 143.362 39.2557ZM165.927 21.5455V39H162.74L155.146 28.0142H155.018V39H151.328V21.5455H154.567L162.101 32.5227H162.254V21.5455H165.927ZM180.07 27.1875C179.951 26.7727 179.783 26.4062 179.567 26.0881C179.352 25.7642 179.087 25.4915 178.775 25.2699C178.468 25.0426 178.116 24.8693 177.718 24.75C177.326 24.6307 176.891 24.571 176.414 24.571C175.522 24.571 174.738 24.7926 174.062 25.2358C173.391 25.679 172.869 26.3239 172.494 27.1705C172.119 28.0114 171.931 29.0398 171.931 30.2557C171.931 31.4716 172.116 32.5057 172.485 33.358C172.854 34.2102 173.377 34.8608 174.053 35.3097C174.729 35.7528 175.528 35.9744 176.448 35.9744C177.283 35.9744 177.996 35.8267 178.587 35.5312C179.184 35.2301 179.638 34.8068 179.951 34.2614C180.269 33.7159 180.428 33.071 180.428 32.3267L181.178 32.4375H176.678V29.6591H183.982V31.858C183.982 33.392 183.658 34.7102 183.011 35.8125C182.363 36.9091 181.471 37.7557 180.334 38.3523C179.198 38.9432 177.897 39.2386 176.431 39.2386C174.795 39.2386 173.357 38.8778 172.119 38.1562C170.88 37.429 169.914 36.3977 169.221 35.0625C168.533 33.7216 168.19 32.1307 168.19 30.2898C168.19 28.875 168.394 27.6136 168.803 26.5057C169.218 25.392 169.798 24.4489 170.542 23.6761C171.286 22.9034 172.153 22.3153 173.141 21.9119C174.13 21.5085 175.201 21.3068 176.354 21.3068C177.343 21.3068 178.263 21.4517 179.116 21.7415C179.968 22.0256 180.724 22.429 181.383 22.9517C182.048 23.4744 182.59 24.0966 183.011 24.8182C183.431 25.5341 183.701 26.3239 183.82 27.1875H180.07Z" fill="white"/>
</svg>
